<svg width="132" height="32" viewBox="0 0 132 32" fill="none" xmlns="http://www.w3.org/2000/svg">
<path d="M16.1621 1.36791V11.7481L21.7597 6.78497V1.33765L16.1621 1.36791Z" fill="#37DCD2"/>
<path d="M16.1622 15.3796V18.5028C16.1622 23.0301 13.7898 26.5769 8.7027 26.5769C7.09535 26.649 5.49995 26.2675 4.0961 25.4753L0 29.1008C2.24625 30.9166 5.24925 31.879 8.7027 31.879C16.8829 31.879 21.7598 26.238 21.7598 18.5028V10.4165L16.1622 15.3796Z" fill="#00376E"/>
<path d="M44.0602 8.24967C43.0391 6.53679 40.2403 4.9147 37.0211 4.9147C32.865 4.9147 30.871 6.65784 30.871 8.89124C30.871 11.4939 33.922 12.2202 37.4776 12.6499C43.6698 13.4186 49.4355 15.0709 49.4355 22.1767C49.4355 28.8345 43.5857 31.7095 36.9731 31.7095C30.907 31.7095 26.2403 29.8271 24.0361 24.3556L28.7028 21.9346C30.0181 25.2272 33.4535 26.6798 37.0571 26.6798C40.6608 26.6798 43.886 25.4208 43.886 22.1767C43.886 19.3562 40.9611 18.2062 37.0211 17.7764C30.955 17.0501 25.3575 15.428 25.3575 8.69756C25.3575 2.56629 31.3815 0.0423681 36.8469 0C41.4716 0 46.2463 1.32552 48.5106 5.93758L44.0602 8.24967Z" fill="#00376E"/>
<path d="M60.3543 6.15548H50.9429V1.02289H75.3693V6.15548H65.9519V30.9408H60.3543V6.15548Z" fill="#00376E"/>
<path d="M103.087 27.5574C101.595 29.0175 99.8292 30.1626 97.8923 30.9254C95.9554 31.6883 93.8868 32.0537 91.8079 32C80.7869 32 76.1202 24.3495 76.0781 16.572C76.0361 8.79439 81.0811 0.835251 91.8079 0.835251C93.832 0.828844 95.8372 1.22732 97.7074 2.00758C99.5776 2.78784 101.275 3.93437 102.703 5.38074L98.973 9.01229C97.0409 7.16672 94.4698 6.15464 91.8079 6.19179C84.6367 6.19179 81.5436 11.5725 81.5977 16.572C81.6517 21.5714 84.4805 26.704 91.8079 26.704C94.5856 26.687 97.2527 25.605 99.2673 23.6777L103.087 27.5574Z" fill="#00376E"/>
<path d="M130.895 1.53736L117.718 15.8517L132.012 30.9408V31.2797H125.087L112.661 18.0306V31.2797H107.063V1.36789H112.661V14.0178L123.94 1.36789H130.895V1.53736Z" fill="#00376E"/>
</svg>
