<svg width="120" height="30" viewBox="0 0 120 30" fill="none" xmlns="http://www.w3.org/2000/svg">
<path d="M14.6929 1.2824V11.0138L19.7816 6.3609V1.25403L14.6929 1.2824Z" fill="#37DCD2"/>
<path d="M14.6929 14.4184V17.3463C14.6929 21.5907 12.5362 24.9158 7.91155 24.9158C6.45032 24.9834 4.99996 24.6258 3.72372 23.8831L0 27.282C2.04204 28.9843 4.77204 29.8865 7.91155 29.8865C15.3481 29.8865 19.7816 24.5981 19.7816 17.3463V9.76547L14.6929 14.4184Z" fill="#00376E"/>
<path d="M40.0545 7.73406C39.1263 6.12824 36.5819 4.60753 33.6554 4.60753C29.877 4.60753 28.0643 6.24172 28.0643 8.33554C28.0643 10.7755 30.838 11.4564 34.0703 11.8593C39.6996 12.5799 44.9412 14.129 44.9412 20.7906C44.9412 27.0323 39.6231 29.7276 33.6117 29.7276C28.0971 29.7276 23.8547 27.9629 21.8508 22.8334L26.0933 20.5636C27.289 23.6505 30.4121 25.0123 33.6881 25.0123C36.9641 25.0123 39.8961 23.832 39.8961 20.7906C39.8961 18.1464 37.2371 17.0683 33.6554 16.6654C28.1408 15.9845 23.052 14.4638 23.052 8.15396C23.052 2.4059 28.5284 0.0397201 33.497 0C37.7012 0 42.0419 1.24267 44.1003 5.56648L40.0545 7.73406Z" fill="#00376E"/>
<path d="M54.8676 5.77076H46.3118V0.958954H68.5176V5.77076H59.9563V29.007H54.8676V5.77076Z" fill="#00376E"/>
<path d="M93.7155 25.8351C92.3593 27.2039 90.7537 28.2774 88.9929 28.9926C87.2321 29.7078 85.3515 30.0503 83.4616 30C73.4425 30 69.2001 22.8277 69.1619 15.5362C69.1236 8.24476 73.71 0.783061 83.4616 0.783061C85.3017 0.777055 87.1247 1.15062 88.8248 1.88212C90.525 2.61361 92.0685 3.68849 93.3661 5.04446L89.9754 8.44903C88.2189 6.71881 85.8816 5.76999 83.4616 5.80481C76.9424 5.80481 74.1305 10.8493 74.1796 15.5362C74.2287 20.2232 76.8004 25.035 83.4616 25.035C85.9868 25.0191 88.4115 24.0047 90.2429 22.1978L93.7155 25.8351Z" fill="#00376E"/>
<path d="M118.995 1.44126L107.016 14.861L120.011 29.007V29.3247H113.716L102.419 16.9037V29.3247H97.3301V1.28238H102.419V13.1417L112.673 1.28238H118.995V1.44126Z" fill="#00376E"/>
</svg>
