<svg width="160" height="38" viewBox="0 0 160 38" fill="none" xmlns="http://www.w3.org/2000/svg">
<path d="M19.5905 1.62438V13.9508L26.3755 8.05714V1.58844L19.5905 1.62438Z" fill="#37DCD2"/>
<path d="M19.5905 18.2633V21.972C19.5905 27.3482 16.7149 31.5601 10.5487 31.5601C8.60043 31.6457 6.66661 31.1926 4.96496 30.252L0 34.5572C2.72272 36.7135 6.36273 37.8563 10.5487 37.8563C20.4641 37.8563 26.3755 31.1576 26.3755 21.972V12.3696L19.5905 18.2633Z" fill="#00376E"/>
<path d="M53.4061 9.79648C52.1685 7.76244 48.776 5.8362 44.874 5.8362C39.8362 5.8362 37.4192 7.90618 37.4192 10.5584C37.4192 13.649 41.1175 14.5114 45.4272 15.0218C52.9329 15.9346 59.9217 17.8967 59.9217 26.3348C59.9217 34.241 52.831 37.655 44.8157 37.655C37.4629 37.655 31.8063 35.4197 29.1346 28.9223L34.7911 26.0473C36.3855 29.9573 40.5496 31.6822 44.9176 31.6822C49.2856 31.6822 53.195 30.1873 53.195 26.3348C53.195 22.9854 49.6496 21.6198 44.874 21.1095C37.5211 20.247 30.7362 18.3208 30.7362 10.3284C30.7362 3.04747 38.038 0.0503121 44.6628 0C50.2684 0 56.056 1.57405 58.8006 7.05088L53.4061 9.79648Z" fill="#00376E"/>
<path d="M73.1568 7.30964H61.749V1.21469H91.3568V7.30964H79.9418V36.7422H73.1568V7.30964Z" fill="#00376E"/>
<path d="M124.954 32.7244C123.146 34.4582 121.005 35.818 118.657 36.724C116.309 37.6299 113.802 38.0637 111.282 38C97.9234 38 92.2668 28.9151 92.2159 19.6792C92.1649 10.4433 98.2801 0.991851 111.282 0.991851C113.736 0.984243 116.166 1.45743 118.433 2.38399C120.7 3.31055 122.758 4.67206 124.488 6.38962L119.967 10.7021C117.625 8.51047 114.509 7.30863 111.282 7.35274C102.59 7.35274 98.8407 13.7424 98.9062 19.6792C98.9717 25.616 102.401 31.711 111.282 31.711C114.649 31.6908 117.882 30.4059 120.324 28.1172L124.954 32.7244Z" fill="#00376E"/>
<path d="M158.66 1.82561L142.688 18.8239L160.015 36.7422V37.1447H151.621L136.558 21.4114V37.1447H129.773V1.62436H136.558V16.6461L150.23 1.62436H158.66V1.82561Z" fill="#00376E"/>
</svg>
