<svg width="22" height="22" viewBox="0 0 22 22" fill="none" xmlns="http://www.w3.org/2000/svg">
<path fill-rule="evenodd" clip-rule="evenodd" d="M22 22H0V0H22V22ZM14.9013 17.281C15.0984 17.4212 15.3514 17.4561 15.5778 17.3699C15.8033 17.2847 15.9702 17.0912 16.0206 16.8566C16.5513 14.3614 17.8402 8.04375 18.3232 5.77408C18.359 5.60267 18.2985 5.42483 18.1647 5.31025C18.0299 5.19658 17.8429 5.16358 17.677 5.225C15.1149 6.17283 7.22333 9.13367 3.99758 10.3281C3.79317 10.4033 3.66025 10.6003 3.66667 10.8167C3.674 11.0321 3.81975 11.22 4.02875 11.2832C5.47525 11.715 7.37458 12.3173 7.37458 12.3173C7.37458 12.3173 8.261 14.9976 8.72392 16.3598C8.78167 16.5312 8.91642 16.6659 9.09242 16.7118C9.26933 16.7576 9.45633 16.7099 9.58833 16.5853C10.3317 15.884 11.4803 14.7996 11.4803 14.7996C11.4803 14.7996 13.6629 16.4001 14.9013 17.281ZM8.173 11.979L9.19875 15.3633L9.427 13.2202C9.427 13.2202 13.3907 9.64517 15.6512 7.6065C15.7172 7.54692 15.7263 7.447 15.6713 7.37642C15.6163 7.30583 15.5164 7.28933 15.4412 7.337C12.8223 9.00992 8.173 11.979 8.173 11.979Z" fill="#0069AF"/>
</svg>
