<svg width="22" height="22" viewBox="0 0 22 22" fill="none" xmlns="http://www.w3.org/2000/svg">
<path d="M13.4447 11C13.4447 12.3503 12.3503 13.4447 11 13.4447C9.64975 13.4447 8.55525 12.3512 8.55525 11C8.55525 9.64975 9.64975 8.55525 11 8.55525C12.3503 8.55525 13.4447 9.64975 13.4447 11ZM16.9703 8.03733C17.0051 8.81008 17.0124 9.042 17.0124 11C17.0124 12.958 17.0051 13.1899 16.9703 13.9636C16.8786 15.9344 15.9537 16.8795 13.9645 16.9693C13.1908 17.0042 12.9589 17.0124 11 17.0124C9.042 17.0124 8.80917 17.0051 8.03733 16.9703C6.0445 16.8795 5.12142 15.9326 5.03158 13.9645C4.99583 13.1899 4.98758 12.958 4.98758 11C4.98758 9.042 4.99583 8.81008 5.03067 8.03733C5.12142 6.06467 6.04725 5.12142 8.03642 5.03158C8.81008 4.99583 9.042 4.9885 11 4.9885C12.958 4.9885 13.1908 4.99583 13.9636 5.03067C15.9509 5.12142 16.8786 6.06467 16.9703 8.03733ZM14.7657 11C14.7657 8.92008 13.079 7.23433 11 7.23433C8.92008 7.23433 7.23433 8.92008 7.23433 11C7.23433 13.0799 8.921 14.7657 11 14.7657C13.0799 14.7657 14.7657 13.0799 14.7657 11ZM15.7942 7.08583C15.7942 6.6 15.4 6.20583 14.9142 6.20583C14.4283 6.20583 14.0342 6.6 14.0342 7.08583C14.0342 7.57167 14.4283 7.96583 14.9142 7.96583C15.4009 7.96583 15.7942 7.57167 15.7942 7.08583ZM22 0V22H0V0H22ZM18.3333 11C18.3333 9.009 18.3251 8.75875 18.2893 7.97683C18.1693 5.31667 16.6898 3.8335 14.0241 3.71158C13.2413 3.67492 12.9919 3.66667 11 3.66667C9.00808 3.66667 8.75967 3.67492 7.97683 3.71067C5.313 3.83258 3.8335 5.31025 3.71067 7.97592C3.67492 8.75875 3.66667 9.009 3.66667 11C3.66667 12.9919 3.67492 13.2413 3.71067 14.0232C3.8335 16.687 5.31117 18.1674 7.97683 18.2893C8.75967 18.3251 9.00808 18.3333 11 18.3333C12.9919 18.3333 13.2413 18.3251 14.0241 18.2893C16.6842 18.1674 18.1693 16.6898 18.2893 14.0232C18.3251 13.2413 18.3333 12.9919 18.3333 11Z" fill="#0069AF"/>
</svg>
