<svg width="22" height="22" viewBox="0 0 22 22" fill="none" xmlns="http://www.w3.org/2000/svg">
<path d="M0 0V22H22V0H0ZM17.2902 8.46725C17.4808 12.6995 14.3247 17.4185 8.73767 17.4185C7.03817 17.4185 5.45692 16.9208 4.125 16.0664C5.72183 16.2543 7.315 15.8116 8.58 14.8207C7.26275 14.7959 6.15175 13.926 5.7695 12.7307C6.24158 12.8205 6.70542 12.7939 7.128 12.6793C5.68058 12.3888 4.68233 11.0852 4.71442 9.691C5.11958 9.9165 5.58433 10.0522 6.07658 10.0677C4.73733 9.17217 4.35783 7.403 5.14525 6.05C6.62933 7.8705 8.84675 9.06858 11.3474 9.19417C10.9083 7.31225 12.3365 5.5 14.2789 5.5C15.1442 5.5 15.9262 5.86483 16.4753 6.45058C17.1609 6.31583 17.8053 6.06558 18.3865 5.72092C18.1619 6.424 17.6843 7.01342 17.0637 7.38558C17.6724 7.31225 18.2527 7.15092 18.7917 6.91167C18.3883 7.513 17.8778 8.04283 17.2902 8.46725Z" fill="#0069AF"/>
</svg>
